<svg width="234" height="81" viewBox="0 0 234 81" fill="none" xmlns="http://www.w3.org/2000/svg">
<path d="M27.168 45.024V48H4.272V13.92H26.736V16.896H7.632V29.184H24.288V32.016H7.632V45.024H27.168ZM33.33 13.92L44.466 28.752L55.554 13.92H59.346L46.29 31.2L58.962 48H55.17L44.466 33.648L33.714 48H29.874L42.546 31.2L29.49 13.92H33.33ZM88.0421 16.896H75.8981V48H72.5381V16.896H60.3941V13.92H88.0421V16.896ZM100.426 13.92H103.258L117.418 48H113.866L109.45 37.344H94.1378L89.7698 48H86.1698L100.426 13.92ZM108.682 34.704L101.818 17.856L94.8578 34.704H108.682ZM119.519 45.36L142.703 16.896H119.903V13.92H146.591V16.56L123.695 45.024H146.543V48H119.519V45.36Z" fill="black"/>
<path d="M112.713 38.3217C114.297 38.3067 115.875 38.4493 117.388 38.7444C117.448 38.757 117.507 38.7722 117.564 38.79C118.895 39.2233 120.065 39.8276 121 40.5637V33L111.651 38.3378C111.996 38.3268 112.351 38.3217 112.713 38.3217Z" fill="black"/>
<path d="M115.674 40.1967C112.541 43.656 108.281 45.5125 103.49 45.5125C102.989 45.5124 102.488 45.4926 101.991 45.4533C97.2961 45.0864 94.1534 43.0431 92.9731 39.6481C91.5666 40.4199 90.21 41.1596 89 41.8165C90.3136 45.9141 94.2719 47.9963 100.812 47.9963C108.288 48.1204 114.982 45.1031 117.188 40.6143C116.951 40.5077 116.703 40.4111 116.445 40.3252C116.194 40.2753 115.935 40.2331 115.674 40.1967Z" fill="black"/>
<path d="M26.4227 12.237C27.8434 8.61428 27.807 5.73027 26.3127 3.66099C25.3647 2.4036 23.941 1.45479 22.2267 0.938027C23.5053 4.14411 22.5774 6.50994 21.4505 8.00757C21.4035 8.0931 21.3398 8.17303 21.2621 8.24386C20.8947 8.69693 20.468 9.11889 19.991 9.50099C20.7277 11.7466 23.5341 12.9404 26.4227 12.237Z" fill="black"/>
<path d="M4.41059 12.237C2.98985 8.61428 3.0263 5.73027 4.52056 3.66099C5.46851 2.4036 6.89227 1.45479 8.60659 0.938027C7.32798 4.14411 8.25584 6.50994 9.38277 8.00757C9.42972 8.0931 9.49346 8.17303 9.57118 8.24386C9.93858 8.69693 10.3652 9.11889 10.8423 9.50099C10.1055 11.7466 7.29916 12.9404 4.41059 12.237Z" fill="black"/>
<path d="M6.138 76.18C5.358 76.18 4.656 75.976 4.032 75.568C3.42 75.16 2.934 74.656 2.574 74.056V79.834H1.35V66.622H2.448V68.44C2.82 67.852 3.318 67.378 3.942 67.018C4.566 66.646 5.232 66.46 5.94 66.46C6.588 66.46 7.182 66.598 7.722 66.874C8.262 67.138 8.73 67.498 9.126 67.954C9.522 68.41 9.828 68.932 10.044 69.52C10.272 70.096 10.386 70.696 10.386 71.32C10.386 72.196 10.206 73.006 9.846 73.75C9.498 74.482 9.006 75.07 8.37 75.514C7.734 75.958 6.99 76.18 6.138 76.18ZM5.796 75.1C6.312 75.1 6.774 74.998 7.182 74.794C7.59 74.578 7.938 74.29 8.226 73.93C8.526 73.57 8.754 73.168 8.91 72.724C9.066 72.268 9.144 71.8 9.144 71.32C9.144 70.816 9.054 70.336 8.874 69.88C8.706 69.424 8.46 69.022 8.136 68.674C7.812 68.326 7.44 68.05 7.02 67.846C6.6 67.642 6.144 67.54 5.652 67.54C5.34 67.54 5.016 67.6 4.68 67.72C4.344 67.84 4.02 68.014 3.708 68.242C3.408 68.458 3.156 68.704 2.952 68.98C2.748 69.256 2.622 69.55 2.574 69.862V72.742C2.766 73.186 3.024 73.588 3.348 73.948C3.672 74.296 4.044 74.578 4.464 74.794C4.896 74.998 5.34 75.1 5.796 75.1ZM16.4554 76.18C15.7834 76.18 15.1594 76.054 14.5834 75.802C14.0194 75.538 13.5274 75.184 13.1074 74.74C12.6994 74.284 12.3814 73.768 12.1534 73.192C11.9254 72.604 11.8114 71.986 11.8114 71.338C11.8114 70.666 11.9254 70.042 12.1534 69.466C12.3814 68.878 12.7054 68.362 13.1254 67.918C13.5454 67.462 14.0374 67.108 14.6014 66.856C15.1774 66.592 15.8014 66.46 16.4734 66.46C17.1454 66.46 17.7634 66.592 18.3274 66.856C18.8914 67.108 19.3834 67.462 19.8034 67.918C20.2234 68.362 20.5474 68.878 20.7754 69.466C21.0034 70.042 21.1174 70.666 21.1174 71.338C21.1174 71.986 21.0034 72.604 20.7754 73.192C20.5474 73.768 20.2234 74.284 19.8034 74.74C19.3954 75.184 18.9034 75.538 18.3274 75.802C17.7634 76.054 17.1394 76.18 16.4554 76.18ZM13.0534 71.356C13.0534 72.052 13.2034 72.688 13.5034 73.264C13.8154 73.828 14.2294 74.278 14.7454 74.614C15.2614 74.938 15.8314 75.1 16.4554 75.1C17.0794 75.1 17.6494 74.932 18.1654 74.596C18.6814 74.26 19.0954 73.804 19.4074 73.228C19.7194 72.64 19.8754 72.004 19.8754 71.32C19.8754 70.624 19.7194 69.988 19.4074 69.412C19.0954 68.836 18.6814 68.38 18.1654 68.044C17.6494 67.708 17.0794 67.54 16.4554 67.54C15.8314 67.54 15.2614 67.714 14.7454 68.062C14.2414 68.41 13.8334 68.872 13.5214 69.448C13.2094 70.012 13.0534 70.648 13.0534 71.356ZM34.656 66.622H35.862L31.83 76H30.768L28.806 71.338L26.862 76H25.8L21.768 66.622H22.956L26.376 74.74L28.104 70.51L26.52 66.64H27.618L28.806 69.682L30.012 66.64H31.092L29.526 70.51L31.254 74.74L34.656 66.622ZM41.1702 76.18C40.4982 76.18 39.8742 76.054 39.2982 75.802C38.7342 75.538 38.2422 75.184 37.8222 74.74C37.4142 74.284 37.0962 73.768 36.8682 73.192C36.6402 72.604 36.5262 71.986 36.5262 71.338C36.5262 70.666 36.6402 70.042 36.8682 69.466C37.0962 68.878 37.4202 68.362 37.8402 67.918C38.2602 67.462 38.7522 67.108 39.3162 66.856C39.8922 66.592 40.5162 66.46 41.1882 66.46C41.8602 66.46 42.4782 66.592 43.0422 66.856C43.6062 67.108 44.0982 67.462 44.5182 67.918C44.9382 68.362 45.2622 68.878 45.4902 69.466C45.7182 70.042 45.8322 70.666 45.8322 71.338C45.8322 71.986 45.7182 72.604 45.4902 73.192C45.2622 73.768 44.9382 74.284 44.5182 74.74C44.1102 75.184 43.6182 75.538 43.0422 75.802C42.4782 76.054 41.8542 76.18 41.1702 76.18ZM37.7682 71.356C37.7682 72.052 37.9182 72.688 38.2182 73.264C38.5302 73.828 38.9442 74.278 39.4602 74.614C39.9762 74.938 40.5462 75.1 41.1702 75.1C41.7942 75.1 42.3642 74.932 42.8802 74.596C43.3962 74.26 43.8102 73.804 44.1222 73.228C44.4342 72.64 44.5902 72.004 44.5902 71.32C44.5902 70.624 44.4342 69.988 44.1222 69.412C43.8102 68.836 43.3962 68.38 42.8802 68.044C42.3642 67.708 41.7942 67.54 41.1702 67.54C40.5462 67.54 39.9762 67.714 39.4602 68.062C38.9562 68.41 38.5482 68.872 38.2362 69.448C37.9242 70.012 37.7682 70.648 37.7682 71.356ZM41.6022 64.84L40.7922 64.534L41.8542 62.86H43.1502L41.6022 64.84ZM47.2493 71.338C47.2493 70.45 47.4293 69.64 47.7893 68.908C48.1613 68.164 48.6713 67.57 49.3193 67.126C49.9673 66.682 50.7053 66.46 51.5333 66.46C52.3133 66.46 53.0093 66.67 53.6213 67.09C54.2453 67.498 54.7313 67.996 55.0793 68.584V62.86H56.3033V74.524C56.3033 74.692 56.3393 74.818 56.4113 74.902C56.4833 74.974 56.5913 75.016 56.7353 75.028V76C56.4953 76.036 56.3093 76.048 56.1773 76.036C55.9253 76.024 55.7033 75.922 55.5113 75.73C55.3193 75.538 55.2233 75.328 55.2233 75.1V74.182C54.8513 74.794 54.3473 75.28 53.7113 75.64C53.0753 76 52.4153 76.18 51.7313 76.18C51.0833 76.18 50.4833 76.048 49.9313 75.784C49.3913 75.52 48.9173 75.16 48.5093 74.704C48.1133 74.248 47.8013 73.732 47.5733 73.156C47.3573 72.568 47.2493 71.962 47.2493 71.338ZM55.0793 72.778V69.88C54.9233 69.448 54.6713 69.058 54.3233 68.71C53.9753 68.35 53.5793 68.068 53.1353 67.864C52.7033 67.648 52.2713 67.54 51.8393 67.54C51.3353 67.54 50.8793 67.648 50.4713 67.864C50.0633 68.068 49.7093 68.35 49.4093 68.71C49.1213 69.07 48.8993 69.478 48.7433 69.934C48.5873 70.39 48.5093 70.858 48.5093 71.338C48.5093 71.842 48.5933 72.322 48.7613 72.778C48.9413 73.234 49.1933 73.642 49.5173 74.002C49.8413 74.35 50.2133 74.62 50.6333 74.812C51.0533 75.004 51.5093 75.1 52.0013 75.1C52.3133 75.1 52.6373 75.04 52.9733 74.92C53.3093 74.8 53.6273 74.638 53.9273 74.434C54.2393 74.218 54.4973 73.966 54.7013 73.678C54.9053 73.39 55.0313 73.09 55.0793 72.778ZM68.1645 75.55C68.0685 75.586 67.9185 75.652 67.7145 75.748C67.5105 75.844 67.2645 75.928 66.9765 76C66.6885 76.072 66.3765 76.108 66.0405 76.108C65.6925 76.108 65.3625 76.042 65.0505 75.91C64.7505 75.778 64.5105 75.58 64.3305 75.316C64.1505 75.04 64.0605 74.704 64.0605 74.308V67.594H62.7645V66.622H64.0605V63.454H65.2845V66.622H67.4445V67.594H65.2845V73.966C65.3085 74.302 65.4285 74.554 65.6445 74.722C65.8725 74.89 66.1305 74.974 66.4185 74.974C66.7545 74.974 67.0605 74.92 67.3365 74.812C67.6125 74.692 67.7805 74.608 67.8405 74.56L68.1645 75.55ZM81.5018 66.622H82.7078L78.6758 76H77.6138L75.6518 71.338L73.7078 76H72.6458L68.6138 66.622H69.8018L73.2218 74.74L74.9498 70.51L73.3658 66.64H74.4638L75.6518 69.682L76.8578 66.64H77.9378L76.3718 70.51L78.0998 74.74L81.5018 66.622ZM88.0159 76.18C87.3439 76.18 86.7199 76.054 86.1439 75.802C85.5799 75.538 85.0879 75.184 84.6679 74.74C84.2599 74.284 83.9419 73.768 83.7139 73.192C83.4859 72.604 83.3719 71.986 83.3719 71.338C83.3719 70.666 83.4859 70.042 83.7139 69.466C83.9419 68.878 84.2659 68.362 84.6859 67.918C85.1059 67.462 85.5979 67.108 86.1619 66.856C86.7379 66.592 87.3619 66.46 88.0339 66.46C88.7059 66.46 89.3239 66.592 89.8879 66.856C90.4519 67.108 90.9439 67.462 91.3639 67.918C91.7839 68.362 92.1079 68.878 92.3359 69.466C92.5639 70.042 92.6779 70.666 92.6779 71.338C92.6779 71.986 92.5639 72.604 92.3359 73.192C92.1079 73.768 91.7839 74.284 91.3639 74.74C90.9559 75.184 90.4639 75.538 89.8879 75.802C89.3239 76.054 88.6999 76.18 88.0159 76.18ZM84.6139 71.356C84.6139 72.052 84.7639 72.688 85.0639 73.264C85.3759 73.828 85.7899 74.278 86.3059 74.614C86.8219 74.938 87.3919 75.1 88.0159 75.1C88.6399 75.1 89.2099 74.932 89.7259 74.596C90.2419 74.26 90.6559 73.804 90.9679 73.228C91.2799 72.64 91.4359 72.004 91.4359 71.32C91.4359 70.624 91.2799 69.988 90.9679 69.412C90.6559 68.836 90.2419 68.38 89.7259 68.044C89.2099 67.708 88.6399 67.54 88.0159 67.54C87.3919 67.54 86.8219 67.714 86.3059 68.062C85.8019 68.41 85.3939 68.872 85.0819 69.448C84.7699 70.012 84.6139 70.648 84.6139 71.356ZM94.725 76V66.622H95.949V76H94.725ZM94.725 64.66V62.86H95.949V64.66H94.725ZM102.713 76.18C102.029 76.18 101.399 76.054 100.823 75.802C100.259 75.538 99.7609 75.178 99.3289 74.722C98.9089 74.266 98.5789 73.744 98.3389 73.156C98.1109 72.568 97.9969 71.944 97.9969 71.284C97.9969 70.396 98.1949 69.586 98.5909 68.854C98.9869 68.122 99.5389 67.54 100.247 67.108C100.955 66.676 101.771 66.46 102.695 66.46C103.571 66.46 104.345 66.664 105.017 67.072C105.689 67.468 106.187 68.008 106.511 68.692L105.323 69.07C105.059 68.59 104.687 68.218 104.207 67.954C103.739 67.678 103.217 67.54 102.641 67.54C102.017 67.54 101.447 67.702 100.931 68.026C100.415 68.35 100.001 68.794 99.6889 69.358C99.3889 69.922 99.2389 70.564 99.2389 71.284C99.2389 71.992 99.3949 72.634 99.7069 73.21C100.019 73.786 100.433 74.248 100.949 74.596C101.465 74.932 102.035 75.1 102.659 75.1C103.067 75.1 103.457 75.028 103.829 74.884C104.213 74.74 104.543 74.548 104.819 74.308C105.107 74.056 105.299 73.786 105.395 73.498L106.601 73.858C106.433 74.302 106.151 74.704 105.755 75.064C105.371 75.412 104.915 75.688 104.387 75.892C103.871 76.084 103.313 76.18 102.713 76.18ZM116.408 76H115.184V70.762C115.184 69.706 114.998 68.914 114.626 68.386C114.254 67.846 113.72 67.576 113.024 67.576C112.568 67.576 112.112 67.696 111.656 67.936C111.212 68.164 110.816 68.482 110.468 68.89C110.132 69.286 109.892 69.742 109.748 70.258V76H108.524V62.86H109.748V68.746C110.12 68.05 110.636 67.498 111.296 67.09C111.968 66.67 112.682 66.46 113.438 66.46C113.978 66.46 114.434 66.556 114.806 66.748C115.19 66.94 115.496 67.222 115.724 67.594C115.964 67.954 116.138 68.38 116.246 68.872C116.354 69.352 116.408 69.898 116.408 70.51V76ZM128.394 76.18C127.614 76.18 126.912 75.976 126.288 75.568C125.676 75.16 125.19 74.656 124.83 74.056V79.834H123.606V66.622H124.704V68.44C125.076 67.852 125.574 67.378 126.198 67.018C126.822 66.646 127.488 66.46 128.196 66.46C128.844 66.46 129.438 66.598 129.978 66.874C130.518 67.138 130.986 67.498 131.382 67.954C131.778 68.41 132.084 68.932 132.3 69.52C132.528 70.096 132.642 70.696 132.642 71.32C132.642 72.196 132.462 73.006 132.102 73.75C131.754 74.482 131.262 75.07 130.626 75.514C129.99 75.958 129.246 76.18 128.394 76.18ZM128.052 75.1C128.568 75.1 129.03 74.998 129.438 74.794C129.846 74.578 130.194 74.29 130.482 73.93C130.782 73.57 131.01 73.168 131.166 72.724C131.322 72.268 131.4 71.8 131.4 71.32C131.4 70.816 131.31 70.336 131.13 69.88C130.962 69.424 130.716 69.022 130.392 68.674C130.068 68.326 129.696 68.05 129.276 67.846C128.856 67.642 128.4 67.54 127.908 67.54C127.596 67.54 127.272 67.6 126.936 67.72C126.6 67.84 126.276 68.014 125.964 68.242C125.664 68.458 125.412 68.704 125.208 68.98C125.004 69.256 124.878 69.55 124.83 69.862V72.742C125.022 73.186 125.28 73.588 125.604 73.948C125.928 74.296 126.3 74.578 126.72 74.794C127.152 74.998 127.596 75.1 128.052 75.1ZM139.395 67.702C138.579 67.726 137.859 67.954 137.235 68.386C136.623 68.818 136.191 69.412 135.939 70.168V76H134.715V66.622H135.867V68.872C136.191 68.212 136.617 67.678 137.145 67.27C137.685 66.862 138.255 66.634 138.855 66.586C138.975 66.574 139.077 66.568 139.161 66.568C139.257 66.568 139.335 66.574 139.395 66.586V67.702ZM140.234 75.172L146.516 67.54H140.378V66.622H147.902V67.45L141.656 75.082H147.884V76H140.234V75.172ZM150.425 78.88C150.593 78.892 150.755 78.898 150.911 78.898C151.067 78.91 151.181 78.904 151.253 78.88C151.397 78.856 151.535 78.772 151.667 78.628C151.799 78.484 151.955 78.208 152.135 77.8C152.315 77.392 152.567 76.792 152.891 76L148.805 66.622H150.101L153.539 74.74L156.707 66.622H157.931L153.071 78.718C152.987 78.946 152.861 79.156 152.693 79.348C152.525 79.552 152.315 79.708 152.063 79.816C151.823 79.936 151.523 80.002 151.163 80.014C151.055 80.026 150.941 80.026 150.821 80.014C150.713 80.014 150.581 80.002 150.425 79.978V78.88ZM158.237 79.258C157.841 79.258 157.469 79.204 157.121 79.096C156.761 78.988 156.449 78.808 156.185 78.556L156.779 77.728C156.959 77.896 157.169 78.01 157.409 78.07C157.637 78.13 157.865 78.16 158.093 78.16C158.381 78.16 158.651 78.088 158.903 77.944C159.155 77.8 159.359 77.596 159.515 77.332C159.683 77.08 159.767 76.798 159.767 76.486V66.622H160.991V76.414C160.991 76.966 160.859 77.458 160.595 77.89C160.331 78.322 159.989 78.658 159.569 78.898C159.149 79.138 158.705 79.258 158.237 79.258ZM159.767 64.66V62.86H160.991V64.66H159.767ZM167.734 76.18C167.062 76.18 166.438 76.054 165.862 75.802C165.286 75.538 164.788 75.184 164.368 74.74C163.948 74.284 163.618 73.762 163.378 73.174C163.15 72.586 163.036 71.956 163.036 71.284C163.036 70.408 163.234 69.604 163.63 68.872C164.038 68.14 164.596 67.558 165.304 67.126C166.012 66.682 166.816 66.46 167.716 66.46C168.64 66.46 169.444 66.682 170.128 67.126C170.824 67.57 171.37 68.158 171.766 68.89C172.162 69.61 172.36 70.402 172.36 71.266C172.36 71.362 172.36 71.458 172.36 71.554C172.36 71.638 172.354 71.704 172.342 71.752H164.314C164.374 72.424 164.56 73.024 164.872 73.552C165.196 74.068 165.61 74.482 166.114 74.794C166.63 75.094 167.188 75.244 167.788 75.244C168.4 75.244 168.976 75.088 169.516 74.776C170.068 74.464 170.452 74.056 170.668 73.552L171.73 73.84C171.538 74.284 171.244 74.686 170.848 75.046C170.452 75.406 169.984 75.688 169.444 75.892C168.916 76.084 168.346 76.18 167.734 76.18ZM164.278 70.87H171.208C171.16 70.186 170.974 69.586 170.65 69.07C170.338 68.554 169.924 68.152 169.408 67.864C168.904 67.564 168.346 67.414 167.734 67.414C167.122 67.414 166.564 67.564 166.06 67.864C165.556 68.152 165.142 68.56 164.818 69.088C164.506 69.604 164.326 70.198 164.278 70.87ZM188.198 76H186.974V70.762C186.974 69.67 186.8 68.866 186.452 68.35C186.104 67.834 185.588 67.576 184.904 67.576C184.196 67.576 183.56 67.828 182.996 68.332C182.444 68.836 182.054 69.484 181.826 70.276V76H180.602V70.762C180.602 69.658 180.434 68.854 180.098 68.35C179.762 67.834 179.246 67.576 178.55 67.576C177.854 67.576 177.224 67.822 176.66 68.314C176.096 68.806 175.7 69.454 175.472 70.258V76H174.248V66.622H175.364V68.746C175.76 68.014 176.264 67.45 176.876 67.054C177.5 66.658 178.19 66.46 178.946 66.46C179.726 66.46 180.356 66.682 180.836 67.126C181.316 67.57 181.61 68.152 181.718 68.872C182.15 68.08 182.666 67.48 183.266 67.072C183.878 66.664 184.568 66.46 185.336 66.46C185.864 66.46 186.308 66.556 186.668 66.748C187.04 66.94 187.334 67.216 187.55 67.576C187.778 67.924 187.94 68.35 188.036 68.854C188.144 69.346 188.198 69.898 188.198 70.51V76ZM198.673 76H197.449V70.762C197.449 69.658 197.287 68.854 196.963 68.35C196.639 67.834 196.129 67.576 195.433 67.576C194.953 67.576 194.479 67.696 194.011 67.936C193.543 68.164 193.129 68.482 192.769 68.89C192.421 69.286 192.169 69.742 192.013 70.258V76H190.789V66.622H191.905V68.746C192.157 68.29 192.487 67.894 192.895 67.558C193.303 67.21 193.765 66.94 194.281 66.748C194.797 66.556 195.331 66.46 195.883 66.46C196.399 66.46 196.837 66.556 197.197 66.748C197.557 66.94 197.845 67.216 198.061 67.576C198.277 67.924 198.433 68.35 198.529 68.854C198.625 69.346 198.673 69.898 198.673 70.51V76ZM205.28 76.18C204.608 76.18 203.984 76.054 203.408 75.802C202.844 75.538 202.352 75.184 201.932 74.74C201.524 74.284 201.206 73.768 200.978 73.192C200.75 72.604 200.636 71.986 200.636 71.338C200.636 70.666 200.75 70.042 200.978 69.466C201.206 68.878 201.53 68.362 201.95 67.918C202.37 67.462 202.862 67.108 203.426 66.856C204.002 66.592 204.626 66.46 205.298 66.46C205.97 66.46 206.588 66.592 207.152 66.856C207.716 67.108 208.208 67.462 208.628 67.918C209.048 68.362 209.372 68.878 209.6 69.466C209.828 70.042 209.942 70.666 209.942 71.338C209.942 71.986 209.828 72.604 209.6 73.192C209.372 73.768 209.048 74.284 208.628 74.74C208.22 75.184 207.728 75.538 207.152 75.802C206.588 76.054 205.964 76.18 205.28 76.18ZM201.878 71.356C201.878 72.052 202.028 72.688 202.328 73.264C202.64 73.828 203.054 74.278 203.57 74.614C204.086 74.938 204.656 75.1 205.28 75.1C205.904 75.1 206.474 74.932 206.99 74.596C207.506 74.26 207.92 73.804 208.232 73.228C208.544 72.64 208.7 72.004 208.7 71.32C208.7 70.624 208.544 69.988 208.232 69.412C207.92 68.836 207.506 68.38 206.99 68.044C206.474 67.708 205.904 67.54 205.28 67.54C204.656 67.54 204.086 67.714 203.57 68.062C203.066 68.41 202.658 68.872 202.346 69.448C202.034 70.012 201.878 70.648 201.878 71.356ZM215.067 76.18C214.299 76.18 213.585 76.054 212.925 75.802C212.265 75.55 211.695 75.166 211.215 74.65L211.719 73.786C212.247 74.278 212.775 74.638 213.303 74.866C213.843 75.082 214.413 75.19 215.013 75.19C215.745 75.19 216.339 75.046 216.795 74.758C217.251 74.458 217.479 74.032 217.479 73.48C217.479 73.108 217.365 72.826 217.137 72.634C216.921 72.43 216.603 72.268 216.183 72.148C215.775 72.016 215.283 71.878 214.707 71.734C214.059 71.554 213.513 71.368 213.069 71.176C212.637 70.972 212.307 70.72 212.079 70.42C211.863 70.108 211.755 69.706 211.755 69.214C211.755 68.602 211.905 68.098 212.205 67.702C212.517 67.294 212.937 66.988 213.465 66.784C214.005 66.568 214.605 66.46 215.265 66.46C215.985 66.46 216.621 66.574 217.173 66.802C217.725 67.03 218.175 67.348 218.523 67.756L217.929 68.584C217.593 68.2 217.191 67.918 216.723 67.738C216.267 67.546 215.757 67.45 215.193 67.45C214.809 67.45 214.443 67.504 214.095 67.612C213.747 67.708 213.459 67.876 213.231 68.116C213.015 68.344 212.907 68.662 212.907 69.07C212.907 69.406 212.991 69.67 213.159 69.862C213.327 70.042 213.579 70.198 213.915 70.33C214.251 70.45 214.665 70.582 215.157 70.726C215.865 70.918 216.483 71.116 217.011 71.32C217.539 71.512 217.947 71.764 218.235 72.076C218.523 72.388 218.667 72.826 218.667 73.39C218.667 74.266 218.337 74.95 217.677 75.442C217.017 75.934 216.147 76.18 215.067 76.18ZM215.517 64.84L214.707 64.534L215.769 62.86H217.065L215.517 64.84ZM224.758 76.18C224.074 76.18 223.444 76.054 222.868 75.802C222.304 75.538 221.806 75.178 221.374 74.722C220.954 74.266 220.624 73.744 220.384 73.156C220.156 72.568 220.042 71.944 220.042 71.284C220.042 70.396 220.24 69.586 220.636 68.854C221.032 68.122 221.584 67.54 222.292 67.108C223 66.676 223.816 66.46 224.74 66.46C225.616 66.46 226.39 66.664 227.062 67.072C227.734 67.468 228.232 68.008 228.556 68.692L227.368 69.07C227.104 68.59 226.732 68.218 226.252 67.954C225.784 67.678 225.262 67.54 224.686 67.54C224.062 67.54 223.492 67.702 222.976 68.026C222.46 68.35 222.046 68.794 221.734 69.358C221.434 69.922 221.284 70.564 221.284 71.284C221.284 71.992 221.44 72.634 221.752 73.21C222.064 73.786 222.478 74.248 222.994 74.596C223.51 74.932 224.08 75.1 224.704 75.1C225.112 75.1 225.502 75.028 225.874 74.884C226.258 74.74 226.588 74.548 226.864 74.308C227.152 74.056 227.344 73.786 227.44 73.498L228.646 73.858C228.478 74.302 228.196 74.704 227.8 75.064C227.416 75.412 226.96 75.688 226.432 75.892C225.916 76.084 225.358 76.18 224.758 76.18ZM230.569 76V66.622H231.793V76H230.569ZM230.569 64.66V62.86H231.793V64.66H230.569Z" fill="black"/>
</svg>
